<svg width="211" height="264" viewBox="0 0 211 264" fill="none" xmlns="http://www.w3.org/2000/svg">
<path d="M168.801 105.499V110.774H150.336V89.6739H140.54C158.522 83.365 171.435 66.2901 171.435 46.1557C171.435 20.6646 150.771 0 125.28 0C108.458 0 93.7857 9.02805 85.7177 22.4712C77.6497 9.02805 62.9774 0 46.1557 0C20.6646 0 0 20.6646 0 46.1557C0 66.2901 12.913 83.365 30.8953 89.6739H21.0997V118.686H5.27493V134.511H21.0997V163.523H73.8491V168.798H60.6617V179.348H68.9434L9.33663 263.747H22.2813L81.8564 179.348H90.0431L30.4364 263.747H43.3811L102.956 179.348H110.774V168.798H97.5863V163.523H150.336V142.423H168.801V147.698H211V105.499H168.801ZM61.4161 89.6739C71.5813 86.0982 80.1774 79.0826 85.7177 69.8401C91.2588 79.0818 99.8546 86.0973 110.019 89.6739H61.4161Z" fill="url(#paint0_linear)"/>
<defs>
<linearGradient id="paint0_linear" x1="0" y1="0" x2="191.231" y2="89.1725" gradientUnits="userSpaceOnUse">
<stop stop-color="#8D2CE3"/>
<stop offset="1" stop-color="#F7C6F6"/>
</linearGradient>
</defs>
</svg>
