<svg width="229" height="229" viewBox="0 0 229 229" fill="none" xmlns="http://www.w3.org/2000/svg">
<path d="M74.2461 0H33.5449C15.0483 0 0 15.0483 0 33.5449V74.2461C0 92.7428 15.0483 107.791 33.5449 107.791H74.2461C92.7428 107.791 107.791 92.7428 107.791 74.2461V33.5449C107.791 15.0483 92.7428 0 74.2461 0Z" fill="white"/>
<path d="M195.455 121.209H154.754C136.257 121.209 121.209 136.257 121.209 154.754V195.455C121.209 213.952 136.257 229 154.754 229H195.455C213.952 229 229 213.952 229 195.455V154.754C229 136.257 213.952 121.209 195.455 121.209Z" fill="white"/>
<path d="M195.455 0H154.754C136.257 0 121.209 15.0483 121.209 33.5449V74.2461C121.209 100.141 100.141 121.209 74.2461 121.209H33.5449C15.0483 121.209 0 136.257 0 154.754V195.455C0 213.952 15.0483 229 33.5449 229H74.2461C92.7428 229 107.791 213.952 107.791 195.455V154.754C107.791 128.859 128.859 107.791 154.754 107.791H195.455C213.952 107.791 229 92.7428 229 74.2461V33.5449C229 15.0483 213.952 0 195.455 0Z" fill="white"/>
</svg>
